<svg width="200" height="57" viewBox="0 0 200 57" fill="none" xmlns="http://www.w3.org/2000/svg"><path d="M0 45.437V11.293h8.829c1.892-.09 3.874.45 5.495 1.441a4.917 4.917 0 012.343 4.685v4.775c0 2.432-1.442 4.054-4.415 5.045 3.063.72 4.595 2.432 4.595 4.955v6.576a6.18 6.18 0 01-2.252 5.045c-1.532 1.171-3.334 1.712-5.226 1.712L0 45.437zm9.55-22.072v-5.856c0-1.171-.721-1.802-2.073-1.802v9.46c1.442 0 2.073-.631 2.073-1.802zm0 15.946v-8.649c0-1.171-.721-1.802-2.073-1.802v12.253c1.442-.09 2.073-.631 2.073-1.802zm24.954 6.126H28.47v-1.081c-.541.99-1.983 1.441-4.325 1.441-3.694 0-5.495-1.441-5.495-4.324v-5.496c0-1.17.45-2.342 1.351-3.243 1.622-1.441 3.423-2.522 5.405-3.423 1.532-.811 2.343-1.442 2.343-1.892v-4.054c.09-.63-.27-1.171-.901-1.351h-.27c-.901 0-1.352 1.08-1.352 3.333 0 .36 0 .99.09 1.802.09.81.09 1.441.09 1.801H18.83v-5.585c0-3.694 2.703-5.586 8.108-5.586 5.045 0 7.567 1.982 7.567 5.856v21.802zm-6.846-5.135v-7.117c-1.532.36-2.343 1.08-2.343 2.072v5.045c-.09.63.27 1.17.901 1.261h.36c.541 0 1.082-.45 1.082-.991v-.27zm24.234 5.135h-6.757V23.185c.09-.54-.27-1.171-.81-1.262h-.27c-.541-.09-1.082.36-1.172.901v22.613h-6.847V11.293h6.757v7.297c.81-.72 2.162-.991 4.234-.991 1.261 0 2.432.36 3.423 1.081.901.63 1.442 1.712 1.442 2.793v23.964zm1.531-11.081h6.757v5.856c0 .9.36 1.441 1.171 1.441s1.172-.9 1.172-2.703c0-2.342-.45-3.873-1.442-4.504-3.513-1.892-5.676-3.153-6.396-3.874-.811-.9-1.172-2.072-1.081-3.333v-3.694c0-3.874 2.612-5.856 7.928-5.856 5.135 0 7.657 1.892 7.657 5.586v5.405h-6.576l.18-3.333c0-2.343-.45-3.424-1.261-3.424-.811 0-1.262.721-1.262 2.163a7.41 7.41 0 00.54 3.423c.361.72 2.433 2.072 6.217 3.964 1.532.99 2.433 2.703 2.342 4.504v4.145c0 3.873-2.702 5.855-8.018 5.855-5.225 0-7.928-1.891-7.928-5.585v-6.036zm33.154-.63h-9.1v6.486c0 .9.36 1.441 1.172 1.441.81 0 1.17-.45 1.17-1.441v-5.586h6.758v5.586c0 3.693-2.703 5.585-7.928 5.585-5.316 0-7.928-1.982-7.928-5.856V23.455c0-3.874 2.612-5.856 7.928-5.856 5.225 0 7.928 1.892 7.928 5.586v10.54zM79.82 29.58v-6.306c.09-.63-.27-1.261-.991-1.352-.63-.09-1.261.27-1.351.991v6.757h2.342v-.09zm24.775 15.856h-3.604L100 43.545c-1.441 1.351-3.243 2.162-5.225 2.252-1.712 0-3.334-.45-4.685-1.351-1.441-.991-2.162-2.703-1.982-4.414V17.689c0-4.414 2.793-6.666 8.469-6.666 5.405 0 8.018 1.981 8.018 6.035v6.307h-6.847v-6.847c0-.54-.36-.81-1.081-.81s-1.081.27-1.081.81v23.694c0 .54.36.81 1.08.81.721 0 1.082-.27 1.082-.81v-6.397h-1.532V28.59h8.288l.091 16.847zm17.387-11.712h-9.099v6.487c0 .9.36 1.441 1.171 1.441s1.171-.45 1.171-1.441v-5.586h6.757v5.586c0 3.693-2.613 5.585-7.928 5.585-5.315 0-7.928-1.982-7.928-5.856V23.455c0-3.874 2.613-5.856 7.928-5.856 5.225 0 7.928 1.892 7.928 5.586v10.54zm-6.757-4.144v-6.306c.09-.63-.27-1.261-.991-1.352-.63-.09-1.261.27-1.351.991v6.757h2.342v-.09zm15.135 15.856h-6.756V11.293h6.756v34.144z" fill="#1095B5"/><path d="M138.018 45.437h-6.216v-4.955h6.216v4.955zm17.207-15.405h-6.757v-6.757c.091-.63-.27-1.261-.991-1.352-.63-.09-1.261.27-1.351.991v17.388c0 .9.36 1.441 1.171 1.441s1.171-.45 1.171-1.441v-6.757h6.757v6.757c0 3.694-2.612 5.585-7.838 5.585-5.405 0-8.018-1.982-8.018-5.855V23.455c0-3.874 2.703-5.856 8.018-5.856 5.226 0 7.838 1.892 7.838 5.586v6.847zm1.352 10V23.455c0-3.874 2.702-5.856 8.108-5.856 1.892 0 3.783.45 5.495 1.352 1.532.81 2.433 2.522 2.342 4.234v17.027c0 3.693-2.612 5.585-7.837 5.585-5.406 0-8.108-1.892-8.108-5.765zm9.189.18V23.275c.09-.63-.361-1.261-.991-1.352-.631-.09-1.262.36-1.352.991v17.298c0 .9.361 1.441 1.172 1.441.81-.09 1.171-.54 1.171-1.441zm33.153 5.225h-6.847V23.365c.09-.54-.27-1.171-.901-1.261h-.27c-.541-.09-1.081.36-1.171.9v22.343h-6.757V23.365c.09-.54-.27-1.171-.901-1.261h-.27c-.541-.09-1.081.36-1.171.9v22.433h-6.757V17.869h6.757v.991c1.261-.9 2.702-1.26 4.234-1.17 1.621 0 3.153.72 4.324 1.891 1.261-1.261 3.063-1.982 4.865-1.892a5.66 5.66 0 013.333 1.081c.991.63 1.622 1.712 1.532 2.973v23.694z" fill="#FF9E2C"/></svg>